<svg class="rich-terminal" viewBox="0 0 1238 1172.3999999999999" xmlns="http://www.w3.org/2000/svg">
    <!-- Generated with Rich https://www.textualize.io -->
    <style>

    @font-face {
        font-family: "Fira Code";
        src: local("FiraCode-Regular"),
                url("https://cdnjs.cloudflare.com/ajax/libs/firacode/6.2.0/woff2/FiraCode-Regular.woff2") format("woff2"),
                url("https://cdnjs.cloudflare.com/ajax/libs/firacode/6.2.0/woff/FiraCode-Regular.woff") format("woff");
        font-style: normal;
        font-weight: 400;
    }
    @font-face {
        font-family: "Fira Code";
        src: local("FiraCode-Bold"),
                url("https://cdnjs.cloudflare.com/ajax/libs/firacode/6.2.0/woff2/FiraCode-Bold.woff2") format("woff2"),
                url("https://cdnjs.cloudflare.com/ajax/libs/firacode/6.2.0/woff/FiraCode-Bold.woff") format("woff");
        font-style: bold;
        font-weight: 700;
    }

    .terminal-308323273-matrix {
        font-family: Fira Code, monospace;
        font-size: 20px;
        line-height: 24.4px;
        font-variant-east-asian: full-width;
    }

    .terminal-308323273-title {
        font-size: 18px;
        font-weight: bold;
        font-family: arial;
    }

    .terminal-308323273-r1 { fill: #c5c8c6 }
.terminal-308323273-r2 { fill: #e0e0e0 }
.terminal-308323273-r3 { fill: #58a6ff;font-weight: bold }
.terminal-308323273-r4 { fill: #6e7681 }
.terminal-308323273-r5 { fill: #30363d }
.terminal-308323273-r6 { fill: #e0e0e0;font-weight: bold }
.terminal-308323273-r7 { fill: #7ee787 }
.terminal-308323273-r8 { fill: #8b949e }
    </style>

    <defs>
    <clipPath id="terminal-308323273-clip-terminal">
      <rect x="0" y="0" width="1219.0" height="1121.3999999999999" />
    </clipPath>
    <clipPath id="terminal-308323273-line-0">
    <rect x="0" y="1.5" width="1220" height="24.65"/>
            </clipPath>
<clipPath id="terminal-308323273-line-1">
    <rect x="0" y="25.9" width="1220" height="24.65"/>
            </clipPath>
<clipPath id="terminal-308323273-line-2">
    <rect x="0" y="50.3" width="1220" height="24.65"/>
            </clipPath>
<clipPath id="terminal-308323273-line-3">
    <rect x="0" y="74.7" width="1220" height="24.65"/>
            </clipPath>
<clipPath id="terminal-308323273-line-4">
    <rect x="0" y="99.1" width="1220" height="24.65"/>
            </clipPath>
<clipPath id="terminal-308323273-line-5">
    <rect x="0" y="123.5" width="1220" height="24.65"/>
            </clipPath>
<clipPath id="terminal-308323273-line-6">
    <rect x="0" y="147.9" width="1220" height="24.65"/>
            </clipPath>
<clipPath id="terminal-308323273-line-7">
    <rect x="0" y="172.3" width="1220" height="24.65"/>
            </clipPath>
<clipPath id="terminal-308323273-line-8">
    <rect x="0" y="196.7" width="1220" height="24.65"/>
            </clipPath>
<clipPath id="terminal-308323273-line-9">
    <rect x="0" y="221.1" width="1220" height="24.65"/>
            </clipPath>
<clipPath id="terminal-308323273-line-10">
    <rect x="0" y="245.5" width="1220" height="24.65"/>
            </clipPath>
<clipPath id="terminal-308323273-line-11">
    <rect x="0" y="269.9" width="1220" height="24.65"/>
            </clipPath>
<clipPath id="terminal-308323273-line-12">
    <rect x="0" y="294.3" width="1220" height="24.65"/>
            </clipPath>
<clipPath id="terminal-308323273-line-13">
    <rect x="0" y="318.7" width="1220" height="24.65"/>
            </clipPath>
<clipPath id="terminal-308323273-line-14">
    <rect x="0" y="343.1" width="1220" height="24.65"/>
            </clipPath>
<clipPath id="terminal-308323273-line-15">
    <rect x="0" y="367.5" width="1220" height="24.65"/>
            </clipPath>
<clipPath id="terminal-308323273-line-16">
    <rect x="0" y="391.9" width="1220" height="24.65"/>
            </clipPath>
<clipPath id="terminal-308323273-line-17">
    <rect x="0" y="416.3" width="1220" height="24.65"/>
            </clipPath>
<clipPath id="terminal-308323273-line-18">
    <rect x="0" y="440.7" width="1220" height="24.65"/>
            </clipPath>
<clipPath id="terminal-308323273-line-19">
    <rect x="0" y="465.1" width="1220" height="24.65"/>
            </clipPath>
<clipPath id="terminal-308323273-line-20">
    <rect x="0" y="489.5" width="1220" height="24.65"/>
            </clipPath>
<clipPath id="terminal-308323273-line-21">
    <rect x="0" y="513.9" width="1220" height="24.65"/>
            </clipPath>
<clipPath id="terminal-308323273-line-22">
    <rect x="0" y="538.3" width="1220" height="24.65"/>
            </clipPath>
<clipPath id="terminal-308323273-line-23">
    <rect x="0" y="562.7" width="1220" height="24.65"/>
            </clipPath>
<clipPath id="terminal-308323273-line-24">
    <rect x="0" y="587.1" width="1220" height="24.65"/>
            </clipPath>
<clipPath id="terminal-308323273-line-25">
    <rect x="0" y="611.5" width="1220" height="24.65"/>
            </clipPath>
<clipPath id="terminal-308323273-line-26">
    <rect x="0" y="635.9" width="1220" height="24.65"/>
            </clipPath>
<clipPath id="terminal-308323273-line-27">
    <rect x="0" y="660.3" width="1220" height="24.65"/>
            </clipPath>
<clipPath id="terminal-308323273-line-28">
    <rect x="0" y="684.7" width="1220" height="24.65"/>
            </clipPath>
<clipPath id="terminal-308323273-line-29">
    <rect x="0" y="709.1" width="1220" height="24.65"/>
            </clipPath>
<clipPath id="terminal-308323273-line-30">
    <rect x="0" y="733.5" width="1220" height="24.65"/>
            </clipPath>
<clipPath id="terminal-308323273-line-31">
    <rect x="0" y="757.9" width="1220" height="24.65"/>
            </clipPath>
<clipPath id="terminal-308323273-line-32">
    <rect x="0" y="782.3" width="1220" height="24.65"/>
            </clipPath>
<clipPath id="terminal-308323273-line-33">
    <rect x="0" y="806.7" width="1220" height="24.65"/>
            </clipPath>
<clipPath id="terminal-308323273-line-34">
    <rect x="0" y="831.1" width="1220" height="24.65"/>
            </clipPath>
<clipPath id="terminal-308323273-line-35">
    <rect x="0" y="855.5" width="1220" height="24.65"/>
            </clipPath>
<clipPath id="terminal-308323273-line-36">
    <rect x="0" y="879.9" width="1220" height="24.65"/>
            </clipPath>
<clipPath id="terminal-308323273-line-37">
    <rect x="0" y="904.3" width="1220" height="24.65"/>
            </clipPath>
<clipPath id="terminal-308323273-line-38">
    <rect x="0" y="928.7" width="1220" height="24.65"/>
            </clipPath>
<clipPath id="terminal-308323273-line-39">
    <rect x="0" y="953.1" width="1220" height="24.65"/>
            </clipPath>
<clipPath id="terminal-308323273-line-40">
    <rect x="0" y="977.5" width="1220" height="24.65"/>
            </clipPath>
<clipPath id="terminal-308323273-line-41">
    <rect x="0" y="1001.9" width="1220" height="24.65"/>
            </clipPath>
<clipPath id="terminal-308323273-line-42">
    <rect x="0" y="1026.3" width="1220" height="24.65"/>
            </clipPath>
<clipPath id="terminal-308323273-line-43">
    <rect x="0" y="1050.7" width="1220" height="24.65"/>
            </clipPath>
<clipPath id="terminal-308323273-line-44">
    <rect x="0" y="1075.1" width="1220" height="24.65"/>
            </clipPath>
    </defs>

    <rect fill="#292929" stroke="rgba(255,255,255,0.35)" stroke-width="1" x="1" y="1" width="1236" height="1170.4" rx="8"/><text class="terminal-308323273-title" fill="#c5c8c6" text-anchor="middle" x="618" y="27">Kivi</text>
            <g transform="translate(26,22)">
            <circle cx="0" cy="0" r="7" fill="#ff5f57"/>
            <circle cx="22" cy="0" r="7" fill="#febc2e"/>
            <circle cx="44" cy="0" r="7" fill="#28c840"/>
            </g>
        
    <g transform="translate(9, 41)" clip-path="url(#terminal-308323273-clip-terminal)">
    <rect fill="#0d1117" x="0" y="1.5" width="1220" height="24.65" shape-rendering="crispEdges"/><rect fill="#0d1117" x="0" y="25.9" width="1220" height="24.65" shape-rendering="crispEdges"/><rect fill="#0d1117" x="0" y="50.3" width="1220" height="24.65" shape-rendering="crispEdges"/><rect fill="#0d1117" x="0" y="74.7" width="1220" height="24.65" shape-rendering="crispEdges"/><rect fill="#0d1117" x="0" y="99.1" width="1220" height="24.65" shape-rendering="crispEdges"/><rect fill="#0d1117" x="0" y="123.5" width="1220" height="24.65" shape-rendering="crispEdges"/><rect fill="#0d1117" x="0" y="147.9" width="1220" height="24.65" shape-rendering="crispEdges"/><rect fill="#0d1117" x="0" y="172.3" width="1220" height="24.65" shape-rendering="crispEdges"/><rect fill="#0d1117" x="0" y="196.7" width="1220" height="24.65" shape-rendering="crispEdges"/><rect fill="#0d1117" x="0" y="221.1" width="1220" height="24.65" shape-rendering="crispEdges"/><rect fill="#0d1117" x="0" y="245.5" width="1220" height="24.65" shape-rendering="crispEdges"/><rect fill="#0d1117" x="0" y="269.9" width="1220" height="24.65" shape-rendering="crispEdges"/><rect fill="#0d1117" x="0" y="294.3" width="1220" height="24.65" shape-rendering="crispEdges"/><rect fill="#0d1117" x="0" y="318.7" width="1220" height="24.65" shape-rendering="crispEdges"/><rect fill="#0d1117" x="0" y="343.1" width="1220" height="24.65" shape-rendering="crispEdges"/><rect fill="#0d1117" x="0" y="367.5" width="48.8" height="24.65" shape-rendering="crispEdges"/><rect fill="#0d1117" x="48.8" y="367.5" width="353.8" height="24.65" shape-rendering="crispEdges"/><rect fill="#0d1117" x="402.6" y="367.5" width="85.4" height="24.65" shape-rendering="crispEdges"/><rect fill="#0d1117" x="488" y="367.5" width="683.2" height="24.65" shape-rendering="crispEdges"/><rect fill="#0d1117" x="1171.2" y="367.5" width="48.8" height="24.65" shape-rendering="crispEdges"/><rect fill="#0d1117" x="0" y="391.9" width="48.8" height="24.65" shape-rendering="crispEdges"/><rect fill="#0d1117" x="48.8" y="391.9" width="353.8" height="24.65" shape-rendering="crispEdges"/><rect fill="#0d1117" x="402.6" y="391.9" width="402.6" height="24.65" shape-rendering="crispEdges"/><rect fill="#0d1117" x="805.2" y="391.9" width="366" height="24.65" shape-rendering="crispEdges"/><rect fill="#0d1117" x="1171.2" y="391.9" width="48.8" height="24.65" shape-rendering="crispEdges"/><rect fill="#0d1117" x="0" y="416.3" width="48.8" height="24.65" shape-rendering="crispEdges"/><rect fill="#0d1117" x="48.8" y="416.3" width="1122.4" height="24.65" shape-rendering="crispEdges"/><rect fill="#0d1117" x="1171.2" y="416.3" width="48.8" height="24.65" shape-rendering="crispEdges"/><rect fill="#0d1117" x="0" y="440.7" width="48.8" height="24.65" shape-rendering="crispEdges"/><rect fill="#0d1117" x="48.8" y="440.7" width="12.2" height="24.65" shape-rendering="crispEdges"/><rect fill="#0d1117" x="61" y="440.7" width="1098" height="24.65" shape-rendering="crispEdges"/><rect fill="#0d1117" x="1159" y="440.7" width="12.2" height="24.65" shape-rendering="crispEdges"/><rect fill="#0d1117" x="1171.2" y="440.7" width="48.8" height="24.65" shape-rendering="crispEdges"/><rect fill="#0d1117" x="0" y="465.1" width="48.8" height="24.65" shape-rendering="crispEdges"/><rect fill="#0d1117" x="48.8" y="465.1" width="12.2" height="24.65" shape-rendering="crispEdges"/><rect fill="#0d1117" x="61" y="465.1" width="1098" height="24.65" shape-rendering="crispEdges"/><rect fill="#0d1117" x="1159" y="465.1" width="12.2" height="24.65" shape-rendering="crispEdges"/><rect fill="#0d1117" x="1171.2" y="465.1" width="48.8" height="24.65" shape-rendering="crispEdges"/><rect fill="#0d1117" x="0" y="489.5" width="48.8" height="24.65" shape-rendering="crispEdges"/><rect fill="#0d1117" x="48.8" y="489.5" width="12.2" height="24.65" shape-rendering="crispEdges"/><rect fill="#0d1117" x="61" y="489.5" width="48.8" height="24.65" shape-rendering="crispEdges"/><rect fill="#0d1117" x="109.8" y="489.5" width="109.8" height="24.65" shape-rendering="crispEdges"/><rect fill="#0d1117" x="219.6" y="489.5" width="207.4" height="24.65" shape-rendering="crispEdges"/><rect fill="#0d1117" x="427" y="489.5" width="683.2" height="24.65" shape-rendering="crispEdges"/><rect fill="#0d1117" x="1110.2" y="489.5" width="48.8" height="24.65" shape-rendering="crispEdges"/><rect fill="#0d1117" x="1159" y="489.5" width="12.2" height="24.65" shape-rendering="crispEdges"/><rect fill="#0d1117" x="1171.2" y="489.5" width="48.8" height="24.65" shape-rendering="crispEdges"/><rect fill="#0d1117" x="0" y="513.9" width="48.8" height="24.65" shape-rendering="crispEdges"/><rect fill="#0d1117" x="48.8" y="513.9" width="12.2" height="24.65" shape-rendering="crispEdges"/><rect fill="#0d1117" x="61" y="513.9" width="48.8" height="24.65" shape-rendering="crispEdges"/><rect fill="#0d1117" x="109.8" y="513.9" width="109.8" height="24.65" shape-rendering="crispEdges"/><rect fill="#0d1117" x="219.6" y="513.9" width="61" height="24.65" shape-rendering="crispEdges"/><rect fill="#0d1117" x="280.6" y="513.9" width="829.6" height="24.65" shape-rendering="crispEdges"/><rect fill="#0d1117" x="1110.2" y="513.9" width="48.8" height="24.65" shape-rendering="crispEdges"/><rect fill="#0d1117" x="1159" y="513.9" width="12.2" height="24.65" shape-rendering="crispEdges"/><rect fill="#0d1117" x="1171.2" y="513.9" width="48.8" height="24.65" shape-rendering="crispEdges"/><rect fill="#0d1117" x="0" y="538.3" width="48.8" height="24.65" shape-rendering="crispEdges"/><rect fill="#0d1117" x="48.8" y="538.3" width="12.2" height="24.65" shape-rendering="crispEdges"/><rect fill="#0d1117" x="61" y="538.3" width="48.8" height="24.65" shape-rendering="crispEdges"/><rect fill="#0d1117" x="109.8" y="538.3" width="109.8" height="24.65" shape-rendering="crispEdges"/><rect fill="#0d1117" x="219.6" y="538.3" width="73.2" height="24.65" shape-rendering="crispEdges"/><rect fill="#0d1117" x="292.8" y="538.3" width="817.4" height="24.65" shape-rendering="crispEdges"/><rect fill="#0d1117" x="1110.2" y="538.3" width="48.8" height="24.65" shape-rendering="crispEdges"/><rect fill="#0d1117" x="1159" y="538.3" width="12.2" height="24.65" shape-rendering="crispEdges"/><rect fill="#0d1117" x="1171.2" y="538.3" width="48.8" height="24.65" shape-rendering="crispEdges"/><rect fill="#0d1117" x="0" y="562.7" width="48.8" height="24.65" shape-rendering="crispEdges"/><rect fill="#0d1117" x="48.8" y="562.7" width="12.2" height="24.65" shape-rendering="crispEdges"/><rect fill="#0d1117" x="61" y="562.7" width="48.8" height="24.65" shape-rendering="crispEdges"/><rect fill="#0d1117" x="109.8" y="562.7" width="109.8" height="24.65" shape-rendering="crispEdges"/><rect fill="#0d1117" x="219.6" y="562.7" width="378.2" height="24.65" shape-rendering="crispEdges"/><rect fill="#0d1117" x="597.8" y="562.7" width="512.4" height="24.65" shape-rendering="crispEdges"/><rect fill="#0d1117" x="1110.2" y="562.7" width="48.8" height="24.65" shape-rendering="crispEdges"/><rect fill="#0d1117" x="1159" y="562.7" width="12.2" height="24.65" shape-rendering="crispEdges"/><rect fill="#0d1117" x="1171.2" y="562.7" width="48.8" height="24.65" shape-rendering="crispEdges"/><rect fill="#0d1117" x="0" y="587.1" width="48.8" height="24.65" shape-rendering="crispEdges"/><rect fill="#0d1117" x="48.8" y="587.1" width="12.2" height="24.65" shape-rendering="crispEdges"/><rect fill="#0d1117" x="61" y="587.1" width="1098" height="24.65" shape-rendering="crispEdges"/><rect fill="#0d1117" x="1159" y="587.1" width="12.2" height="24.65" shape-rendering="crispEdges"/><rect fill="#0d1117" x="1171.2" y="587.1" width="48.8" height="24.65" shape-rendering="crispEdges"/><rect fill="#0d1117" x="0" y="611.5" width="48.8" height="24.65" shape-rendering="crispEdges"/><rect fill="#0d1117" x="48.8" y="611.5" width="12.2" height="24.65" shape-rendering="crispEdges"/><rect fill="#0d1117" x="61" y="611.5" width="1098" height="24.65" shape-rendering="crispEdges"/><rect fill="#0d1117" x="1159" y="611.5" width="12.2" height="24.65" shape-rendering="crispEdges"/><rect fill="#0d1117" x="1171.2" y="611.5" width="48.8" height="24.65" shape-rendering="crispEdges"/><rect fill="#0d1117" x="0" y="635.9" width="48.8" height="24.65" shape-rendering="crispEdges"/><rect fill="#0d1117" x="48.8" y="635.9" width="1122.4" height="24.65" shape-rendering="crispEdges"/><rect fill="#0d1117" x="1171.2" y="635.9" width="48.8" height="24.65" shape-rendering="crispEdges"/><rect fill="#0d1117" x="0" y="660.3" width="48.8" height="24.65" shape-rendering="crispEdges"/><rect fill="#0d1117" x="48.8" y="660.3" width="366" height="24.65" shape-rendering="crispEdges"/><rect fill="#0d1117" x="414.8" y="660.3" width="378.2" height="24.65" shape-rendering="crispEdges"/><rect fill="#0d1117" x="793" y="660.3" width="378.2" height="24.65" shape-rendering="crispEdges"/><rect fill="#0d1117" x="1171.2" y="660.3" width="48.8" height="24.65" shape-rendering="crispEdges"/><rect fill="#0d1117" x="0" y="684.7" width="48.8" height="24.65" shape-rendering="crispEdges"/><rect fill="#0d1117" x="48.8" y="684.7" width="1122.4" height="24.65" shape-rendering="crispEdges"/><rect fill="#0d1117" x="1171.2" y="684.7" width="48.8" height="24.65" shape-rendering="crispEdges"/><rect fill="#0d1117" x="0" y="709.1" width="48.8" height="24.65" shape-rendering="crispEdges"/><rect fill="#0d1117" x="48.8" y="709.1" width="244" height="24.65" shape-rendering="crispEdges"/><rect fill="#0d1117" x="292.8" y="709.1" width="61" height="24.65" shape-rendering="crispEdges"/><rect fill="#0d1117" x="353.8" y="709.1" width="109.8" height="24.65" shape-rendering="crispEdges"/><rect fill="#0d1117" x="463.6" y="709.1" width="12.2" height="24.65" shape-rendering="crispEdges"/><rect fill="#0d1117" x="475.8" y="709.1" width="85.4" height="24.65" shape-rendering="crispEdges"/><rect fill="#0d1117" x="561.2" y="709.1" width="12.2" height="24.65" shape-rendering="crispEdges"/><rect fill="#0d1117" x="573.4" y="709.1" width="97.6" height="24.65" shape-rendering="crispEdges"/><rect fill="#0d1117" x="671" y="709.1" width="12.2" height="24.65" shape-rendering="crispEdges"/><rect fill="#0d1117" x="683.2" y="709.1" width="85.4" height="24.65" shape-rendering="crispEdges"/><rect fill="#0d1117" x="768.6" y="709.1" width="12.2" height="24.65" shape-rendering="crispEdges"/><rect fill="#0d1117" x="780.8" y="709.1" width="146.4" height="24.65" shape-rendering="crispEdges"/><rect fill="#0d1117" x="927.2" y="709.1" width="244" height="24.65" shape-rendering="crispEdges"/><rect fill="#0d1117" x="1171.2" y="709.1" width="48.8" height="24.65" shape-rendering="crispEdges"/><rect fill="#0d1117" x="0" y="733.5" width="48.8" height="24.65" shape-rendering="crispEdges"/><rect fill="#0d1117" x="48.8" y="733.5" width="353.8" height="24.65" shape-rendering="crispEdges"/><rect fill="#0d1117" x="402.6" y="733.5" width="12.2" height="24.65" shape-rendering="crispEdges"/><rect fill="#0d1117" x="414.8" y="733.5" width="170.8" height="24.65" shape-rendering="crispEdges"/><rect fill="#0d1117" x="585.6" y="733.5" width="12.2" height="24.65" shape-rendering="crispEdges"/><rect fill="#0d1117" x="597.8" y="733.5" width="134.2" height="24.65" shape-rendering="crispEdges"/><rect fill="#0d1117" x="732" y="733.5" width="12.2" height="24.65" shape-rendering="crispEdges"/><rect fill="#0d1117" x="744.2" y="733.5" width="73.2" height="24.65" shape-rendering="crispEdges"/><rect fill="#0d1117" x="817.4" y="733.5" width="353.8" height="24.65" shape-rendering="crispEdges"/><rect fill="#0d1117" x="1171.2" y="733.5" width="48.8" height="24.65" shape-rendering="crispEdges"/><rect fill="#0d1117" x="0" y="757.9" width="1220" height="24.65" shape-rendering="crispEdges"/><rect fill="#0d1117" x="0" y="782.3" width="1220" height="24.65" shape-rendering="crispEdges"/><rect fill="#0d1117" x="0" y="806.7" width="1220" height="24.65" shape-rendering="crispEdges"/><rect fill="#0d1117" x="0" y="831.1" width="1220" height="24.65" shape-rendering="crispEdges"/><rect fill="#0d1117" x="0" y="855.5" width="1220" height="24.65" shape-rendering="crispEdges"/><rect fill="#0d1117" x="0" y="879.9" width="1220" height="24.65" shape-rendering="crispEdges"/><rect fill="#0d1117" x="0" y="904.3" width="1220" height="24.65" shape-rendering="crispEdges"/><rect fill="#0d1117" x="0" y="928.7" width="1220" height="24.65" shape-rendering="crispEdges"/><rect fill="#0d1117" x="0" y="953.1" width="1220" height="24.65" shape-rendering="crispEdges"/><rect fill="#0d1117" x="0" y="977.5" width="1220" height="24.65" shape-rendering="crispEdges"/><rect fill="#0d1117" x="0" y="1001.9" width="1220" height="24.65" shape-rendering="crispEdges"/><rect fill="#0d1117" x="0" y="1026.3" width="1220" height="24.65" shape-rendering="crispEdges"/><rect fill="#0d1117" x="0" y="1050.7" width="1220" height="24.65" shape-rendering="crispEdges"/><rect fill="#0d1117" x="0" y="1075.1" width="1220" height="24.65" shape-rendering="crispEdges"/><rect fill="#0d1117" x="0" y="1099.5" width="1220" height="24.65" shape-rendering="crispEdges"/>
    <g class="terminal-308323273-matrix">
    <text class="terminal-308323273-r1" x="1220" y="20" textLength="12.2" clip-path="url(#terminal-308323273-line-0)">
</text><text class="terminal-308323273-r1" x="1220" y="44.4" textLength="12.2" clip-path="url(#terminal-308323273-line-1)">
</text><text class="terminal-308323273-r1" x="1220" y="68.8" textLength="12.2" clip-path="url(#terminal-308323273-line-2)">
</text><text class="terminal-308323273-r1" x="1220" y="93.2" textLength="12.2" clip-path="url(#terminal-308323273-line-3)">
</text><text class="terminal-308323273-r1" x="1220" y="117.6" textLength="12.2" clip-path="url(#terminal-308323273-line-4)">
</text><text class="terminal-308323273-r1" x="1220" y="142" textLength="12.2" clip-path="url(#terminal-308323273-line-5)">
</text><text class="terminal-308323273-r1" x="1220" y="166.4" textLength="12.2" clip-path="url(#terminal-308323273-line-6)">
</text><text class="terminal-308323273-r1" x="1220" y="190.8" textLength="12.2" clip-path="url(#terminal-308323273-line-7)">
</text><text class="terminal-308323273-r1" x="1220" y="215.2" textLength="12.2" clip-path="url(#terminal-308323273-line-8)">
</text><text class="terminal-308323273-r1" x="1220" y="239.6" textLength="12.2" clip-path="url(#terminal-308323273-line-9)">
</text><text class="terminal-308323273-r1" x="1220" y="264" textLength="12.2" clip-path="url(#terminal-308323273-line-10)">
</text><text class="terminal-308323273-r1" x="1220" y="288.4" textLength="12.2" clip-path="url(#terminal-308323273-line-11)">
</text><text class="terminal-308323273-r1" x="1220" y="312.8" textLength="12.2" clip-path="url(#terminal-308323273-line-12)">
</text><text class="terminal-308323273-r1" x="1220" y="337.2" textLength="12.2" clip-path="url(#terminal-308323273-line-13)">
</text><text class="terminal-308323273-r1" x="1220" y="361.6" textLength="12.2" clip-path="url(#terminal-308323273-line-14)">
</text><text class="terminal-308323273-r3" x="402.6" y="386" textLength="85.4" clip-path="url(#terminal-308323273-line-15)">K&#160;I&#160;V&#160;I</text><text class="terminal-308323273-r1" x="1220" y="386" textLength="12.2" clip-path="url(#terminal-308323273-line-15)">
</text><text class="terminal-308323273-r4" x="402.6" y="410.4" textLength="402.6" clip-path="url(#terminal-308323273-line-16)">terminalde&#160;hızlı&#160;yazma&#160;antrenmanı</text><text class="terminal-308323273-r1" x="1220" y="410.4" textLength="12.2" clip-path="url(#terminal-308323273-line-16)">
</text><text class="terminal-308323273-r1" x="1220" y="434.8" textLength="12.2" clip-path="url(#terminal-308323273-line-17)">
</text><text class="terminal-308323273-r5" x="48.8" y="459.2" textLength="12.2" clip-path="url(#terminal-308323273-line-18)">╭</text><text class="terminal-308323273-r5" x="61" y="459.2" textLength="1098" clip-path="url(#terminal-308323273-line-18)">──────────────────────────────────────────────────────────────────────────────────────────</text><text class="terminal-308323273-r5" x="1159" y="459.2" textLength="12.2" clip-path="url(#terminal-308323273-line-18)">╮</text><text class="terminal-308323273-r1" x="1220" y="459.2" textLength="12.2" clip-path="url(#terminal-308323273-line-18)">
</text><text class="terminal-308323273-r5" x="48.8" y="483.6" textLength="12.2" clip-path="url(#terminal-308323273-line-19)">│</text><text class="terminal-308323273-r5" x="1159" y="483.6" textLength="12.2" clip-path="url(#terminal-308323273-line-19)">│</text><text class="terminal-308323273-r1" x="1220" y="483.6" textLength="12.2" clip-path="url(#terminal-308323273-line-19)">
</text><text class="terminal-308323273-r5" x="48.8" y="508" textLength="12.2" clip-path="url(#terminal-308323273-line-20)">│</text><text class="terminal-308323273-r4" x="109.8" y="508" textLength="109.8" clip-path="url(#terminal-308323273-line-20)">&#160;&#160;Dil&#160;&#160;&#160;&#160;</text><text class="terminal-308323273-r6" x="219.6" y="508" textLength="207.4" clip-path="url(#terminal-308323273-line-20)">Türkçe&#160;·&#160;F&#160;klavye</text><text class="terminal-308323273-r5" x="1159" y="508" textLength="12.2" clip-path="url(#terminal-308323273-line-20)">│</text><text class="terminal-308323273-r1" x="1220" y="508" textLength="12.2" clip-path="url(#terminal-308323273-line-20)">
</text><text class="terminal-308323273-r5" x="48.8" y="532.4" textLength="12.2" clip-path="url(#terminal-308323273-line-21)">│</text><text class="terminal-308323273-r4" x="109.8" y="532.4" textLength="109.8" clip-path="url(#terminal-308323273-line-21)">&#160;&#160;Süre&#160;&#160;&#160;</text><text class="terminal-308323273-r6" x="219.6" y="532.4" textLength="61" clip-path="url(#terminal-308323273-line-21)">30&#160;sn</text><text class="terminal-308323273-r5" x="1159" y="532.4" textLength="12.2" clip-path="url(#terminal-308323273-line-21)">│</text><text class="terminal-308323273-r1" x="1220" y="532.4" textLength="12.2" clip-path="url(#terminal-308323273-line-21)">
</text><text class="terminal-308323273-r5" x="48.8" y="556.8" textLength="12.2" clip-path="url(#terminal-308323273-line-22)">│</text><text class="terminal-308323273-r4" x="109.8" y="556.8" textLength="109.8" clip-path="url(#terminal-308323273-line-22)">&#160;&#160;Mod&#160;&#160;&#160;&#160;</text><text class="terminal-308323273-r6" x="219.6" y="556.8" textLength="73.2" clip-path="url(#terminal-308323273-line-22)">Normal</text><text class="terminal-308323273-r5" x="1159" y="556.8" textLength="12.2" clip-path="url(#terminal-308323273-line-22)">│</text><text class="terminal-308323273-r1" x="1220" y="556.8" textLength="12.2" clip-path="url(#terminal-308323273-line-22)">
</text><text class="terminal-308323273-r5" x="48.8" y="581.2" textLength="12.2" clip-path="url(#terminal-308323273-line-23)">│</text><text class="terminal-308323273-r4" x="109.8" y="581.2" textLength="109.8" clip-path="url(#terminal-308323273-line-23)">&#160;&#160;Switch&#160;</text><text class="terminal-308323273-r6" x="219.6" y="581.2" textLength="378.2" clip-path="url(#terminal-308323273-line-23)">Kahverengi&#160;·&#160;dokunsal&#160;(tactile)</text><text class="terminal-308323273-r5" x="1159" y="581.2" textLength="12.2" clip-path="url(#terminal-308323273-line-23)">│</text><text class="terminal-308323273-r1" x="1220" y="581.2" textLength="12.2" clip-path="url(#terminal-308323273-line-23)">
</text><text class="terminal-308323273-r5" x="48.8" y="605.6" textLength="12.2" clip-path="url(#terminal-308323273-line-24)">│</text><text class="terminal-308323273-r5" x="1159" y="605.6" textLength="12.2" clip-path="url(#terminal-308323273-line-24)">│</text><text class="terminal-308323273-r1" x="1220" y="605.6" textLength="12.2" clip-path="url(#terminal-308323273-line-24)">
</text><text class="terminal-308323273-r5" x="48.8" y="630" textLength="12.2" clip-path="url(#terminal-308323273-line-25)">╰</text><text class="terminal-308323273-r5" x="61" y="630" textLength="1098" clip-path="url(#terminal-308323273-line-25)">──────────────────────────────────────────────────────────────────────────────────────────</text><text class="terminal-308323273-r5" x="1159" y="630" textLength="12.2" clip-path="url(#terminal-308323273-line-25)">╯</text><text class="terminal-308323273-r1" x="1220" y="630" textLength="12.2" clip-path="url(#terminal-308323273-line-25)">
</text><text class="terminal-308323273-r1" x="1220" y="654.4" textLength="12.2" clip-path="url(#terminal-308323273-line-26)">
</text><text class="terminal-308323273-r7" x="414.8" y="678.8" textLength="378.2" clip-path="url(#terminal-308323273-line-27)">En&#160;yüksek:&#160;61&#160;WPM&#160;&#160;&#160;·&#160;&#160;&#160;12&#160;test</text><text class="terminal-308323273-r1" x="1220" y="678.8" textLength="12.2" clip-path="url(#terminal-308323273-line-27)">
</text><text class="terminal-308323273-r1" x="1220" y="703.2" textLength="12.2" clip-path="url(#terminal-308323273-line-28)">
</text><text class="terminal-308323273-r3" x="292.8" y="727.6" textLength="61" clip-path="url(#terminal-308323273-line-29)">Enter</text><text class="terminal-308323273-r8" x="353.8" y="727.6" textLength="109.8" clip-path="url(#terminal-308323273-line-29)">&#160;başla&#160;&#160;&#160;</text><text class="terminal-308323273-r3" x="463.6" y="727.6" textLength="12.2" clip-path="url(#terminal-308323273-line-29)">L</text><text class="terminal-308323273-r8" x="475.8" y="727.6" textLength="85.4" clip-path="url(#terminal-308323273-line-29)">&#160;dil&#160;&#160;&#160;</text><text class="terminal-308323273-r3" x="561.2" y="727.6" textLength="12.2" clip-path="url(#terminal-308323273-line-29)">D</text><text class="terminal-308323273-r8" x="573.4" y="727.6" textLength="97.6" clip-path="url(#terminal-308323273-line-29)">&#160;süre&#160;&#160;&#160;</text><text class="terminal-308323273-r3" x="671" y="727.6" textLength="12.2" clip-path="url(#terminal-308323273-line-29)">M</text><text class="terminal-308323273-r8" x="683.2" y="727.6" textLength="85.4" clip-path="url(#terminal-308323273-line-29)">&#160;mod&#160;&#160;&#160;</text><text class="terminal-308323273-r3" x="768.6" y="727.6" textLength="12.2" clip-path="url(#terminal-308323273-line-29)">S</text><text class="terminal-308323273-r8" x="780.8" y="727.6" textLength="146.4" clip-path="url(#terminal-308323273-line-29)">&#160;switch&#160;sesi</text><text class="terminal-308323273-r1" x="1220" y="727.6" textLength="12.2" clip-path="url(#terminal-308323273-line-29)">
</text><text class="terminal-308323273-r3" x="402.6" y="752" textLength="12.2" clip-path="url(#terminal-308323273-line-30)">W</text><text class="terminal-308323273-r8" x="414.8" y="752" textLength="170.8" clip-path="url(#terminal-308323273-line-30)">&#160;istatistik&#160;&#160;&#160;</text><text class="terminal-308323273-r3" x="585.6" y="752" textLength="12.2" clip-path="url(#terminal-308323273-line-30)">X</text><text class="terminal-308323273-r8" x="597.8" y="752" textLength="134.2" clip-path="url(#terminal-308323273-line-30)">&#160;sıfırla&#160;&#160;&#160;</text><text class="terminal-308323273-r3" x="732" y="752" textLength="12.2" clip-path="url(#terminal-308323273-line-30)">Q</text><text class="terminal-308323273-r8" x="744.2" y="752" textLength="73.2" clip-path="url(#terminal-308323273-line-30)">&#160;çıkış</text><text class="terminal-308323273-r1" x="1220" y="752" textLength="12.2" clip-path="url(#terminal-308323273-line-30)">
</text><text class="terminal-308323273-r1" x="1220" y="776.4" textLength="12.2" clip-path="url(#terminal-308323273-line-31)">
</text><text class="terminal-308323273-r1" x="1220" y="800.8" textLength="12.2" clip-path="url(#terminal-308323273-line-32)">
</text><text class="terminal-308323273-r1" x="1220" y="825.2" textLength="12.2" clip-path="url(#terminal-308323273-line-33)">
</text><text class="terminal-308323273-r1" x="1220" y="849.6" textLength="12.2" clip-path="url(#terminal-308323273-line-34)">
</text><text class="terminal-308323273-r1" x="1220" y="874" textLength="12.2" clip-path="url(#terminal-308323273-line-35)">
</text><text class="terminal-308323273-r1" x="1220" y="898.4" textLength="12.2" clip-path="url(#terminal-308323273-line-36)">
</text><text class="terminal-308323273-r1" x="1220" y="922.8" textLength="12.2" clip-path="url(#terminal-308323273-line-37)">
</text><text class="terminal-308323273-r1" x="1220" y="947.2" textLength="12.2" clip-path="url(#terminal-308323273-line-38)">
</text><text class="terminal-308323273-r1" x="1220" y="971.6" textLength="12.2" clip-path="url(#terminal-308323273-line-39)">
</text><text class="terminal-308323273-r1" x="1220" y="996" textLength="12.2" clip-path="url(#terminal-308323273-line-40)">
</text><text class="terminal-308323273-r1" x="1220" y="1020.4" textLength="12.2" clip-path="url(#terminal-308323273-line-41)">
</text><text class="terminal-308323273-r1" x="1220" y="1044.8" textLength="12.2" clip-path="url(#terminal-308323273-line-42)">
</text><text class="terminal-308323273-r1" x="1220" y="1069.2" textLength="12.2" clip-path="url(#terminal-308323273-line-43)">
</text><text class="terminal-308323273-r1" x="1220" y="1093.6" textLength="12.2" clip-path="url(#terminal-308323273-line-44)">
</text>
    </g>
    </g>
</svg>
